<?xml version="1.0" encoding="UTF-8" standalone="no"?>
<svg
   xmlns:dc="http://purl.org/dc/elements/1.1/"
   xmlns:cc="http://creativecommons.org/ns#"
   xmlns:rdf="http://www.w3.org/1999/02/22-rdf-syntax-ns#"
   xmlns:svg="http://www.w3.org/2000/svg"
   xmlns="http://www.w3.org/2000/svg"
   xmlns:sodipodi="http://sodipodi.sourceforge.net/DTD/sodipodi-0.dtd"
   xmlns:inkscape="http://www.inkscape.org/namespaces/inkscape"
   aria-hidden="true"
   focusable="false"
   data-prefix="fas"
   data-icon="check"
   class="svg-inline--fa fa-check fa-w-16"
   role="img"
   viewBox="0 0 512 512"
   version="1.1"
   id="svg4"
   sodipodi:docname="check-solid.svg"
   inkscape:version="1.0.2-2 (e86c870879, 2021-01-15)">
  <metadata
     id="metadata10">
    <rdf:RDF>
      <cc:Work
         rdf:about="">
        <dc:format>image/svg+xml</dc:format>
        <dc:type
           rdf:resource="http://purl.org/dc/dcmitype/StillImage" />
      </cc:Work>
    </rdf:RDF>
  </metadata>
  <defs
     id="defs8" />
  <sodipodi:namedview
     pagecolor="#ffffff"
     bordercolor="#666666"
     borderopacity="1"
     objecttolerance="10"
     gridtolerance="10"
     guidetolerance="10"
     inkscape:pageopacity="0"
     inkscape:pageshadow="2"
     inkscape:window-width="1920"
     inkscape:window-height="986"
     id="namedview6"
     showgrid="false"
     inkscape:zoom="1.5625"
     inkscape:cx="89.6"
     inkscape:cy="253.12"
     inkscape:window-x="-11"
     inkscape:window-y="-11"
     inkscape:window-maximized="1"
     inkscape:current-layer="svg4" />
  <path
     fill="currentColor"
     d="M173.898 439.404l-166.4-166.4c-9.997-9.997-9.997-26.206 0-36.204l36.203-36.204c9.997-9.998 26.207-9.998 36.204 0L192 312.69 432.095 72.596c9.997-9.997 26.207-9.997 36.204 0l36.203 36.204c9.997 9.997 9.997 26.206 0 36.204l-294.4 294.401c-9.998 9.997-26.207 9.997-36.204-.001z"
     id="path2" />
  <path
     style="fill:#0025ff;stroke-width:0.64;fill-opacity:1"
     d="m 183.86364,445.12024 c -1.83501,-0.65242 -4.57101,-2.04974 -6.08,-3.10516 -1.509,-1.05541 -41.08303,-40.31656 -87.942277,-87.24701 C -7.1712339,257.6081 0.96,266.73254 0.96,255.03002 0.96,244.06747 0.90587789,244.14474 26.371226,218.7519 51.460477,193.73409 51.195526,193.92 61.76,193.92 c 11.816256,0 6.194733,-4.76026 72.48547,61.38012 l 57.76548,57.63443 121.43452,-121.3486 C 429.18577,75.927536 435.08944,70.136112 439.34654,68.078668 443.50904,66.066942 444.25057,65.92 450.24,65.92 c 10.60296,0 10.69185,0.0628 35.9681,25.411226 25.1331,25.204864 24.8319,24.771734 24.8319,35.708774 0,11.84749 16.11833,-5.41449 -152.87967,163.72705 -82.06018,82.12988 -150.4292,150.18707 -151.93116,151.2382 -6.16874,4.31713 -15.37723,5.59966 -22.36553,3.11499 z"
     id="path12" />
  <path
     style="fill:#0061ff;fill-opacity:1;stroke-width:0.64"
     d="m 184.96,445.19663 c -5.61981,-1.83898 -8.4476,-4.52418 -80.87578,-76.79776 C 27.071659,291.55068 8.0563814,272.08185 3.8313332,265.75479 1.2925031,261.95286 1.28,261.9036 1.28,255.70257 c 0,-6.91424 0.5819565,-9.22359 3.3925725,-13.46257 2.8656733,-4.32202 41.1098415,-42.30166 45.5014745,-45.18675 3.704243,-2.4335 3.902029,-2.48374 10.693554,-2.7162 8.368034,-0.28642 10.043426,0.35627 17.621321,6.75956 2.767091,2.33819 29.438748,28.59307 59.270358,58.34417 L 191.99855,313.5337 309.91928,195.76647 C 374.77567,130.99449 430.31354,75.85741 433.33675,73.239619 c 6.63393,-5.744291 9.69401,-7.007226 16.96775,-7.002784 5.87487,0.0036 8.2997,0.6668 12.4155,3.395737 3.71146,2.460844 42.06568,40.816848 44.60537,44.607428 2.66741,3.98122 3.32216,6.43901 3.51614,13.19879 0.16543,5.76499 0.13829,5.88229 -2.1473,9.28 -1.27317,1.89267 -5.70202,7.18521 -9.84188,11.76121 -4.13987,4.576 -71.63522,72.45679 -149.98968,150.84621 C 188.14579,460.11478 204.0372,445.24015 192.64,445.5532 c -3.344,0.0918 -6.8,-0.0686 -7.68,-0.35657 z"
     id="path837" />
</svg>
